<svg id="Layer_1" data-name="Layer 1" xmlns="http://www.w3.org/2000/svg" viewBox="0 0 200 200"><defs><style>.cls-1{fill:#0077b5;}</style></defs><title>logo-color</title><path class="cls-1" d="M185.19,0H14.75A14.59,14.59,0,0,0,0,14.41V185.57A14.6,14.6,0,0,0,14.75,200H185.19A14.65,14.65,0,0,0,200,185.57V14.41A14.64,14.64,0,0,0,185.19,0ZM59.33,170.42H29.64V75H59.33ZM44.49,61.93a17.2,17.2,0,1,1,17.19-17.2A17.19,17.19,0,0,1,44.49,61.93ZM170.41,170.42H140.77V124c0-11.07-.21-25.31-15.41-25.31-15.44,0-17.79,12.05-17.79,24.51v47.21H77.94V75h28.43V88h.41c4-7.51,13.64-15.42,28.07-15.42,30,0,35.56,19.76,35.56,45.47Z"/></svg>